<svg width="1920" height="1080" viewBox="0 0 1920 1080" xmlns="http://www.w3.org/2000/svg">
  <!-- Background gradient -->
  <defs>
    <radialGradient id="bg" cx="30%" cy="40%" r="70%">
      <stop offset="0%" style="stop-color:#f0fdf4;stop-opacity:1" />
      <stop offset="50%" style="stop-color:#dcfce7;stop-opacity:1" />
      <stop offset="100%" style="stop-color:#bbf7d0;stop-opacity:1" />
    </radialGradient>
    
    <linearGradient id="wood" x1="0%" y1="0%" x2="100%" y2="100%">
      <stop offset="0%" style="stop-color:#92400e;stop-opacity:1" />
      <stop offset="50%" style="stop-color:#a16207;stop-opacity:1" />
      <stop offset="100%" style="stop-color:#78350f;stop-opacity:1" />
    </linearGradient>
    
    <linearGradient id="basket" x1="0%" y1="0%" x2="100%" y2="100%">
      <stop offset="0%" style="stop-color:#d97706;stop-opacity:1" />
      <stop offset="100%" style="stop-color:#92400e;stop-opacity:1" />
    </linearGradient>
  </defs>
  
  <rect width="1920" height="1080" fill="url(#bg)"/>
  
  <!-- Floor -->
  <rect x="0" y="800" width="1920" height="280" fill="#e5e7eb" opacity="0.3"/>
  
  <!-- Wooden shelves/counter -->
  <rect x="0" y="700" width="1920" height="100" fill="url(#wood)"/>
  <rect x="0" y="720" width="1920" height="10" fill="#451a03" opacity="0.5"/>
  
  <!-- Left side flower display -->
  <g transform="translate(200, 400)">
    <!-- Basket -->
    <ellipse cx="0" cy="200" rx="80" ry="40" fill="url(#basket)"/>
    <rect x="-80" y="160" width="160" height="40" fill="url(#basket)" rx="10"/>
    
    <!-- Flowers in basket -->
    <g transform="translate(-40, 120)">
      <!-- Roses -->
      <circle cx="0" cy="0" r="25" fill="#f43f5e"/>
      <circle cx="-8" cy="-8" r="15" fill="#fda4af" opacity="0.8"/>
      <circle cx="8" cy="8" r="12" fill="#be123c" opacity="0.6"/>
      
      <circle cx="30" cy="-10" r="22" fill="#ec4899"/>
      <circle cx="25" cy="-15" r="13" fill="#f9a8d4" opacity="0.8"/>
      
      <circle cx="60" cy="5" r="28" fill="#f59e0b"/>
      <circle cx="55" cy="0" r="18" fill="#fbbf24" opacity="0.8"/>
      
      <!-- Stems -->
      <line x1="0" y1="25" x2="0" y2="80" stroke="#22c55e" stroke-width="4"/>
      <line x1="30" y1="12" x2="30" y2="75" stroke="#16a34a" stroke-width="4"/>
      <line x1="60" y1="33" x2="60" y2="85" stroke="#15803d" stroke-width="4"/>
    </g>
  </g>
  
  <!-- Center large bouquet display -->
  <g transform="translate(960, 300)">
    <!-- Large vase -->
    <ellipse cx="0" cy="300" rx="60" ry="30" fill="#6b7280"/>
    <rect x="-50" y="200" width="100" height="100" fill="#9ca3af" rx="10"/>
    <rect x="-45" y="205" width="90" height="90" fill="#d1d5db" rx="8"/>
    
    <!-- Large bouquet -->
    <g transform="translate(0, 150)">
      <!-- Multiple roses -->
      <circle cx="-40" cy="0" r="35" fill="#f43f5e"/>
      <circle cx="-45" cy="-10" r="25" fill="#fda4af" opacity="0.8"/>
      
      <circle cx="0" cy="-20" r="40" fill="#ec4899"/>
      <circle cx="-5" cy="-25" r="28" fill="#f9a8d4" opacity="0.8"/>
      
      <circle cx="40" cy="0" r="35" fill="#f59e0b"/>
      <circle cx="35" cy="-5" r="25" fill="#fbbf24" opacity="0.8"/>
      
      <circle cx="-20" cy="30" r="32" fill="#8b5cf6"/>
      <circle cx="-25" cy="25" r="22" fill="#c4b5fd" opacity="0.8"/>
      
      <circle cx="20" cy="30" r="32" fill="#06b6d4"/>
      <circle cx="15" cy="25" r="22" fill="#67e8f9" opacity="0.8"/>
      
      <!-- Stems -->
      <line x1="-40" y1="35" x2="-40" y2="150" stroke="#22c55e" stroke-width="6"/>
      <line x1="0" y1="20" x2="0" y2="145" stroke="#16a34a" stroke-width="6"/>
      <line x1="40" y1="35" x2="40" y2="150" stroke="#15803d" stroke-width="6"/>
      <line x1="-20" y1="62" x2="-20" y2="155" stroke="#22c55e" stroke-width="6"/>
      <line x1="20" y1="62" x2="20" y2="155" stroke="#16a34a" stroke-width="6"/>
      
      <!-- Leaves -->
      <ellipse cx="-60" cy="80" rx="15" ry="25" fill="#22c55e" transform="rotate(-30 -60 80)"/>
      <ellipse cx="60" cy="85" rx="12" ry="22" fill="#16a34a" transform="rotate(30 60 85)"/>
      <ellipse cx="-10" cy="90" rx="18" ry="30" fill="#15803d" transform="rotate(-10 -10 90)"/>
    </g>
  </g>
  
  <!-- Right side flower arrangements -->
  <g transform="translate(1500, 450)">
    <!-- Small baskets -->
    <ellipse cx="-100" cy="150" rx="50" ry="25" fill="url(#basket)"/>
    <rect x="-150" y="125" width="100" height="25" fill="url(#basket)" rx="8"/>
    
    <ellipse cx="100" cy="180" rx="45" ry="22" fill="url(#basket)"/>
    <rect x="55" y="158" width="90" height="22" fill="url(#basket)" rx="8"/>
    
    <!-- Flowers in small baskets -->
    <g transform="translate(-100, 100)">
      <circle cx="0" cy="0" r="18" fill="#c084fc"/>
      <circle cx="20" cy="-5" r="16" fill="#a855f7"/>
      <circle cx="-20" cy="5" r="15" fill="#9333ea"/>
      
      <line x1="0" y1="18" x2="0" y2="50" stroke="#22c55e" stroke-width="3"/>
      <line x1="20" y1="11" x2="20" y2="45" stroke="#16a34a" stroke-width="3"/>
      <line x1="-20" y1="20" x2="-20" y2="48" stroke="#15803d" stroke-width="3"/>
    </g>
    
    <g transform="translate(100, 130)">
      <circle cx="0" cy="0" r="16" fill="#60a5fa"/>
      <circle cx="18" cy="-3" r="14" fill="#3b82f6"/>
      <circle cx="-18" cy="3" r="13" fill="#2563eb"/>
      
      <line x1="0" y1="16" x2="0" y2="45" stroke="#22c55e" stroke-width="3"/>
      <line x1="18" y1="11" x2="18" y2="42" stroke="#16a34a" stroke-width="3"/>
      <line x1="-18" y1="16" x2="-18" y2="44" stroke="#15803d" stroke-width="3"/>
    </g>
  </g>
  
  <!-- Hanging plants -->
  <g transform="translate(400, 100)">
    <rect x="-10" y="0" width="20" height="80" fill="#92400e"/>
    <ellipse cx="0" cy="80" rx="40" ry="20" fill="url(#basket)"/>
    
    <!-- Hanging flowers -->
    <g transform="translate(0, 100)">
      <ellipse cx="-15" cy="0" rx="8" ry="20" fill="#22c55e"/>
      <ellipse cx="0" cy="5" rx="10" ry="25" fill="#16a34a"/>
      <ellipse cx="15" cy="-2" rx="9" ry="22" fill="#15803d"/>
      
      <circle cx="-15" cy="-15" r="8" fill="#f472b6"/>
      <circle cx="0" cy="-18" r="9" fill="#ec4899"/>
      <circle cx="15" cy="-12" r="7" fill="#db2777"/>
    </g>
  </g>
  
  <g transform="translate(1200, 120)">
    <rect x="-8" y="0" width="16" height="70" fill="#92400e"/>
    <ellipse cx="0" cy="70" rx="35" ry="18" fill="url(#basket)"/>
    
    <g transform="translate(0, 90)">
      <ellipse cx="-12" cy="0" rx="7" ry="18" fill="#22c55e"/>
      <ellipse cx="0" cy="3" rx="8" ry="20" fill="#16a34a"/>
      <ellipse cx="12" cy="-1" rx="6" ry="19" fill="#15803d"/>
      
      <circle cx="-12" cy="-12" r="6" fill="#fbbf24"/>
      <circle cx="0" cy="-15" r="7" fill="#f59e0b"/>
      <circle cx="12" cy="-10" r="5" fill="#d97706"/>
    </g>
  </g>
  
  <!-- Floor decorations -->
  <g transform="translate(600, 850)">
    <ellipse cx="0" cy="0" rx="80" ry="40" fill="url(#basket)"/>
    <rect x="-70" y="-30" width="140" height="30" fill="url(#basket)" rx="15"/>
    
    <g transform="translate(0, -60)">
      <circle cx="-30" cy="0" r="20" fill="#f43f5e"/>
      <circle cx="0" cy="-10" r="22" fill="#ec4899"/>
      <circle cx="30" cy="0" r="20" fill="#f59e0b"/>
      <circle cx="-15" cy="20" r="18" fill="#8b5cf6"/>
      <circle cx="15" cy="20" r="18" fill="#06b6d4"/>
      
      <line x1="-30" y1="20" x2="-30" y2="60" stroke="#22c55e" stroke-width="4"/>
      <line x1="0" y1="12" x2="0" y2="55" stroke="#16a34a" stroke-width="4"/>
      <line x1="30" y1="20" x2="30" y2="60" stroke="#15803d" stroke-width="4"/>
      <line x1="-15" y1="38" x2="-15" y2="65" stroke="#22c55e" stroke-width="4"/>
      <line x1="15" y1="38" x2="15" y2="65" stroke="#16a34a" stroke-width="4"/>
    </g>
  </g>
  
  <!-- Scattered petals -->
  <ellipse cx="300" cy="600" rx="6" ry="3" fill="#fda4af" opacity="0.7" transform="rotate(45 300 600)"/>
  <ellipse cx="800" cy="550" rx="5" ry="2" fill="#c4b5fd" opacity="0.7" transform="rotate(-30 800 550)"/>
  <ellipse cx="1400" cy="620" rx="7" ry="4" fill="#fbbf24" opacity="0.7" transform="rotate(60 1400 620)"/>
  <ellipse cx="1600" cy="580" rx="4" ry="2" fill="#67e8f9" opacity="0.7" transform="rotate(-45 1600 580)"/>
  <ellipse cx="500" cy="750" rx="6" ry="3" fill="#f9a8d4" opacity="0.7" transform="rotate(30 500 750)"/>
  <ellipse cx="1100" cy="700" rx="5" ry="3" fill="#a7f3d0" opacity="0.7" transform="rotate(-60 1100 700)"/>
</svg>
