<svg width="80" height="80" viewBox="0 0 80 80" xmlns="http://www.w3.org/2000/svg">
  <defs>
    <linearGradient id="giftGradient" x1="0%" y1="0%" x2="100%" y2="100%">
      <stop offset="0%" style="stop-color:#f59e0b;stop-opacity:1" />
      <stop offset="100%" style="stop-color:#d97706;stop-opacity:1" />
    </linearGradient>
    <linearGradient id="ribbonGradient" x1="0%" y1="0%" x2="100%" y2="100%">
      <stop offset="0%" style="stop-color:#dc2626;stop-opacity:1" />
      <stop offset="100%" style="stop-color:#b91c1c;stop-opacity:1" />
    </linearGradient>
    <linearGradient id="bowGradient" x1="0%" y1="0%" x2="100%" y2="100%">
      <stop offset="0%" style="stop-color:#ef4444;stop-opacity:1" />
      <stop offset="100%" style="stop-color:#dc2626;stop-opacity:1" />
    </linearGradient>
  </defs>
  
  <!-- Gift box base -->
  <rect x="20" y="35" width="40" height="35" rx="2" fill="url(#giftGradient)" stroke="#d97706" stroke-width="1"/>
  
  <!-- Gift box lid -->
  <rect x="18" y="30" width="44" height="8" rx="2" fill="url(#giftGradient)" stroke="#d97706" stroke-width="1"/>
  
  <!-- Vertical ribbon -->
  <rect x="37" y="25" width="6" height="50" fill="url(#ribbonGradient)"/>
  
  <!-- Horizontal ribbon -->
  <rect x="15" y="32" width="50" height="4" fill="url(#ribbonGradient)"/>
  
  <!-- Bow left side -->
  <ellipse cx="32" cy="20" rx="8" ry="6" fill="url(#bowGradient)" transform="rotate(-15 32 20)"/>
  
  <!-- Bow right side -->
  <ellipse cx="48" cy="20" rx="8" ry="6" fill="url(#bowGradient)" transform="rotate(15 48 20)"/>
  
  <!-- Bow center -->
  <ellipse cx="40" cy="20" rx="3" ry="4" fill="#b91c1c"/>
  
  <!-- Bow knot lines -->
  <path d="M37 18 L43 22 M43 18 L37 22" stroke="#991b1b" stroke-width="1" stroke-linecap="round"/>
  
  <!-- Gift box shadow -->
  <ellipse cx="40" cy="72" rx="18" ry="3" fill="#000000" opacity="0.2"/>
  
  <!-- Sparkles around the gift -->
  <circle cx="15" cy="15" r="1.5" fill="#fbbf24" opacity="0.8"/>
  <circle cx="65" cy="25" r="1" fill="#fbbf24" opacity="0.6"/>
  <circle cx="70" cy="50" r="1.5" fill="#fbbf24" opacity="0.8"/>
  <circle cx="10" cy="55" r="1" fill="#fbbf24" opacity="0.6"/>
  
  <!-- Star sparkles -->
  <path d="M25 10 L26 12 L28 11 L26.5 13 L28 15 L26 14 L25 16 L24 14 L22 15 L23.5 13 L22 11 L24 12 Z" fill="#fbbf24" opacity="0.7"/>
  <path d="M60 60 L61 62 L63 61 L61.5 63 L63 65 L61 64 L60 66 L59 64 L57 65 L58.5 63 L57 61 L59 62 Z" fill="#fbbf24" opacity="0.7"/>
</svg>
