<?xml version="1.0" encoding="utf-8"?>
<!DOCTYPE svg PUBLIC "-//W3C//DTD SVG 20010904//EN" "http://www.w3.org/TR/2001/REC-SVG-20010904/DTD/svg10.dtd">
<svg version="1.0" xmlns="http://www.w3.org/2000/svg" width="120pt" height="120pt" viewBox="0 0 120 120" style="background-color:#FFFFFF" preserveAspectRatio="xMidYMid meet">
<g fill="#F96100FF" stroke="#F96100FF">
<path d="M 46.443 26.764 C 45.014 27.760 43.259 32.600 42.484 37.686 C 42.025 40.699 42.349 42.942 43.640 45.686 C 45.719 50.105 48.606 53.500 50.284 53.500 C 50.927 53.500 50.350 54.527 49.002 55.783 C 45.901 58.673 47.098 61.043 52.412 62.534 L 56.109 63.571 52.168 65.785 C 47.012 68.683 42.982 68.786 43.710 66.000 C 44.334 63.616 42.487 63.290 41.590 65.626 C 40.749 67.818 32.558 67.063 28.498 64.418 L 25.553 62.500 29.220 62.193 C 31.873 61.971 33.454 62.454 34.943 63.943 C 37.352 66.352 40.000 66.643 40.000 64.500 C 40.000 63.675 39.550 63.000 39.000 63.000 C 36.470 63.000 38.355 61.091 41.161 60.813 C 47.827 60.152 44.091 53.996 37.027 54.004 C 33.454 54.008 27.000 57.175 27.000 58.925 C 27.000 59.450 28.688 60.056 30.750 60.272 C 33.187 60.526 32.253 60.723 28.083 60.832 C 24.554 60.924 22.004 61.338 22.417 61.750 C 22.829 62.163 23.579 62.556 24.083 62.625 C 24.588 62.694 24.705 62.806 24.345 62.875 C 22.808 63.168 27.733 67.231 31.815 69.036 C 37.103 71.375 43.720 71.562 48.630 69.510 C 52.000 68.102 52.291 68.138 53.929 70.161 C 56.146 72.899 60.077 72.094 61.996 68.508 C 63.862 65.021 64.965 67.030 64.985 73.950 C 64.997 78.189 64.733 79.133 63.800 78.200 C 61.819 76.219 61.016 76.831 61.622 79.862 C 62.297 83.233 60.031 88.165 56.756 90.457 C 54.572 91.985 54.511 91.950 54.843 89.353 C 55.244 86.218 57.175 84.000 59.502 84.000 C 60.530 84.000 61.020 83.344 60.810 82.250 C 60.624 81.288 59.604 80.500 58.542 80.500 C 56.930 80.500 56.656 79.882 56.882 76.750 C 57.107 73.636 56.830 73.000 55.251 73.000 C 52.965 73.000 49.521 76.477 48.106 80.213 C 46.332 84.895 50.081 93.485 51.906 88.920 C 52.644 87.074 52.888 86.931 52.937 88.316 C 52.971 89.314 52.514 91.040 51.919 92.151 C 50.427 94.939 51.132 95.261 55.096 93.601 C 59.129 91.913 61.797 89.643 64.797 85.346 C 66.533 82.860 67.000 80.775 67.000 75.512 C 67.000 70.597 67.330 68.952 68.250 69.282 C 70.140 69.959 73.000 68.146 73.000 66.270 C 73.000 65.356 71.791 63.347 70.313 61.805 L 67.626 59.000 70.135 59.000 C 71.515 59.000 74.842 59.749 77.529 60.664 C 81.122 61.889 81.942 62.494 80.633 62.953 C 77.883 63.918 78.197 65.424 81.155 65.464 C 83.793 65.500 83.798 65.514 81.960 67.793 C 80.398 69.728 79.810 69.899 78.187 68.885 C 75.756 67.366 73.000 68.372 73.000 70.779 C 73.000 73.559 78.585 78.700 82.378 79.411 C 85.883 80.069 89.028 79.353 90.174 77.637 C 90.609 76.986 91.406 77.092 92.424 77.937 C 93.797 79.076 93.997 78.875 93.978 76.372 C 93.944 71.878 90.624 65.660 86.401 62.179 C 84.280 60.431 82.084 58.997 81.522 58.994 C 80.960 58.991 78.857 58.532 76.849 57.975 C 73.992 57.181 73.304 56.554 73.686 55.093 C 73.954 54.066 73.620 52.883 72.943 52.465 C 71.126 51.342 66.074 51.693 64.431 53.058 C 62.133 54.965 62.771 52.753 65.978 47.696 C 68.963 42.989 71.000 41.693 71.000 44.500 C 71.000 46.872 72.826 46.244 73.180 43.750 C 73.545 41.185 80.833 37.000 84.934 37.000 L 87.444 37.000 85.212 39.233 C 83.594 40.850 81.879 41.437 78.989 41.361 C 74.683 41.248 73.891 42.291 76.870 44.151 C 78.651 45.263 78.616 45.426 76.153 47.545 C 73.928 49.458 73.753 49.998 74.905 51.385 C 78.043 55.166 86.401 51.168 88.859 44.712 C 90.513 40.366 89.810 38.957 87.177 41.339 C 86.168 42.253 84.956 43.000 84.483 43.000 C 83.484 43.000 86.399 40.194 89.973 37.715 C 92.393 36.036 92.267 36.000 83.923 36.000 C 76.425 36.000 74.915 36.315 71.364 38.617 C 69.143 40.057 66.253 42.972 64.941 45.095 C 63.387 47.610 62.215 48.615 61.578 47.978 C 58.401 44.801 54.355 48.952 55.706 54.000 L 56.500 56.967 52.750 53.911 C 50.688 52.230 49.000 50.212 49.000 49.427 C 49.000 48.642 48.550 48.000 48.000 48.000 C 47.450 48.000 47.000 47.550 47.000 47.000 C 47.000 46.450 47.900 46.000 49.000 46.000 C 51.699 46.000 51.539 44.406 48.750 43.511 C 46.613 42.824 46.601 42.764 48.500 42.310 C 49.600 42.047 51.063 41.108 51.750 40.225 C 52.867 38.789 53.000 38.835 53.000 40.654 C 53.000 41.774 53.827 43.438 54.838 44.353 C 56.555 45.907 56.784 45.896 58.338 44.179 C 61.809 40.344 59.126 32.384 53.449 29.677 L 49.966 28.016 50.546 30.758 C 51.013 32.962 50.771 32.767 49.313 29.764 C 48.239 27.550 47.069 26.328 46.443 26.764 M 48.393 31.582 C 49.444 34.320 49.055 38.088 47.568 39.574 C 46.326 40.817 46.049 40.730 45.473 38.916 C 44.681 36.420 45.736 30.000 46.938 30.000 C 47.405 30.000 48.059 30.712 48.393 31.582 M 54.985 79.028 C 54.124 80.636 53.568 80.919 53.018 80.028 C 52.416 79.056 52.087 79.051 51.497 80.005 C 51.083 80.675 51.324 81.582 52.034 82.021 C 53.060 82.655 53.004 83.139 51.759 84.384 C 50.393 85.750 50.122 85.761 49.625 84.466 C 48.379 81.219 53.275 73.935 55.343 75.960 C 55.806 76.414 55.645 77.794 54.985 79.028 M 92.000 74.167 C 92.000 75.696 89.655 75.025 87.314 72.826 C 86.019 71.609 85.018 69.517 85.042 68.076 C 85.082 65.558 85.161 65.588 88.542 69.417 C 90.444 71.571 92.000 73.708 92.000 74.167 M 78.784 70.845 C 79.551 71.332 79.785 72.397 79.365 73.491 C 78.789 74.992 79.046 75.221 80.795 74.764 C 82.017 74.444 83.421 74.802 84.086 75.603 C 86.120 78.055 80.004 77.311 77.867 74.847 C 76.840 73.663 75.967 73.100 75.926 73.597 C 75.885 74.094 75.663 73.488 75.432 72.250 C 74.999 69.927 76.407 69.337 78.784 70.845 M 87.000 44.826 C 87.000 46.302 82.568 49.721 79.811 50.372 C 76.423 51.173 75.230 49.483 78.099 47.947 C 79.755 47.061 80.431 47.079 81.015 48.025 C 81.434 48.702 82.284 48.942 82.905 48.559 C 83.525 48.176 83.774 47.443 83.457 46.931 C 83.141 46.419 83.160 45.550 83.500 45.000 C 84.244 43.797 87.000 43.659 87.000 44.826 M 72.000 55.070 C 72.000 56.622 71.460 57.059 69.841 56.820 C 66.712 56.357 66.490 53.000 69.588 53.000 C 71.360 53.000 72.000 53.549 72.000 55.070 M 61.000 50.438 C 61.000 52.259 60.494 52.838 59.000 52.725 C 56.864 52.564 56.649 52.078 57.607 49.582 C 58.565 47.086 61.000 47.701 61.000 50.438 M 70.985 66.750 C 70.993 67.438 70.100 68.000 69.000 68.000 C 66.761 68.000 66.140 64.465 68.250 63.733 C 69.607 63.263 70.960 64.755 70.985 66.750 M 42.001 58.999 C 41.274 59.449 39.800 59.491 38.725 59.094 C 36.893 58.416 36.876 58.267 38.457 56.686 C 39.998 55.145 40.279 55.136 41.734 56.591 C 43.021 57.878 43.072 58.337 42.001 58.999 M 59.000 68.000 C 59.000 69.333 58.333 70.000 57.000 70.000 C 55.073 70.000 54.290 68.043 55.667 66.667 C 57.043 65.290 59.000 66.073 59.000 68.000 M 53.264 57.598 C 54.238 58.571 52.901 61.000 51.393 61.000 C 50.627 61.000 50.000 60.812 50.000 60.582 C 50.000 60.352 49.727 59.452 49.393 58.582 C 48.968 57.474 49.368 57.000 50.726 57.000 C 51.794 57.000 52.936 57.269 53.264 57.598 M 55.800 33.200 C 57.500 34.900 57.296 35.689 55.000 36.290 C 53.409 36.706 53.000 36.320 53.000 34.406 C 53.000 31.764 53.953 31.353 55.800 33.200 M 57.440 40.382 C 56.598 43.738 55.000 43.777 55.000 40.441 C 55.000 38.990 55.433 38.149 56.000 38.500 C 56.550 38.840 57.000 38.566 57.000 37.892 C 57.000 37.218 57.247 36.914 57.549 37.215 C 57.850 37.517 57.802 38.942 57.440 40.382 M 87.224 75.204 C 88.476 76.167 88.970 76.966 88.323 76.978 C 86.542 77.011 82.988 72.015 83.086 69.615 C 83.151 68.007 83.385 68.214 84.060 70.476 C 84.548 72.113 85.972 74.240 87.224 75.204 M 35.075 57.896 C 34.536 58.756 33.503 59.023 32.379 58.592 C 30.829 57.997 30.777 57.751 32.028 56.947 C 34.164 55.576 36.140 56.192 35.075 57.896 M 66.153 61.000 C 66.698 61.000 66.515 61.628 65.747 62.396 C 64.552 63.590 64.167 63.497 63.077 61.751 C 61.964 59.970 62.016 59.792 63.483 60.355 C 64.407 60.710 65.609 61.000 66.153 61.000 M 64.964 58.299 C 62.786 58.869 62.748 58.821 63.597 56.607 C 64.102 55.292 64.405 55.262 65.561 56.418 C 66.717 57.574 66.625 57.865 64.964 58.299 M 59.000 60.000 C 59.000 60.550 58.325 61.000 57.500 61.000 C 56.675 61.000 56.000 60.550 56.000 60.000 C 56.000 59.450 56.675 59.000 57.500 59.000 C 58.325 59.000 59.000 59.450 59.000 60.000 M 61.000 56.714 C 61.000 58.333 60.905 58.333 59.286 56.714 C 57.667 55.095 57.667 55.000 59.286 55.000 C 60.238 55.000 61.000 55.762 61.000 56.714 M 60.073 64.000 C 58.833 64.000 58.657 62.679 59.750 61.577 C 60.163 61.161 60.645 61.536 60.823 62.410 C 61.001 63.285 60.664 64.000 60.073 64.000 M 55.000 83.888 L 56.500 82.212 55.000 83.888 L 53.500 85.563 55.000 83.888 "/></g>
</svg>
